# xmcd
#
# Track frame offsets: 
#        150
#        17939
#        38112
#        60012
#        79483
#        100324
#        112701
#        133081
#        151869
#        179186
#        194234
#        214608
#        232070
#        260491
#
# Disc length: 3766 seconds
#
# Revision: 0
# Processed by: cddbd v1.5.2PL0 Copyright (c) Steve Scherf et al.
# Submitted via: ExactAudioCopy v0.99pb3
#
DISCID=c50eb40e
DTITLE=Beth Hart - 37 days
DYEAR=2007
DGENRE=Blues
TTITLE0=1. Good as it gets 3:57
TTITLE1=2. Jealousy 4:29
TTITLE2=3. One eyed chicken 4:52
TTITLE3=4. Over you 4:19
TTITLE4=5. Sick 4:37
TTITLE5=6. Face forward 2:45
TTITLE6=7. Soul shine 4:31
TTITLE7=8. Forever young 4:10
TTITLE8=9. Easy 6:04
TTITLE9=10. Heaven look down 3:20
TTITLE10=11. Missing you 4:31
TTITLE11=12. Waterfalls 3:53
TTITLE12=13. Crashing down the end 6:18
TTITLE13=14. At the bottom 4:53
EXTD=
EXTT0=
EXTT1=
EXTT2=
EXTT3=
EXTT4=
EXTT5=
EXTT6=
EXTT7=
EXTT8=
EXTT9=
EXTT10=
EXTT11=
EXTT12=
EXTT13=
PLAYORDER=
